<?xml version="1.0" encoding="utf-8"?>
<!-- Generator: Adobe Illustrator 25.0.1, SVG Export Plug-In . SVG Version: 6.00 Build 0)  -->
<svg version="1.1" id="Layer_1" xmlns="http://www.w3.org/2000/svg" xmlns:xlink="http://www.w3.org/1999/xlink" x="0px" y="0px"
	 viewBox="0 0 90.6 19.3" style="enable-background:new 0 0 90.6 19.3;" xml:space="preserve">
<style type="text/css">
	.st0{fill:#FFFFFF;}
	.st1{fill:#FF483C;}
</style>
<g>
	<g>
		<path class="st0" d="M0.4,0.4h3.1v10.9H0.4V0.4z"/>
		<path class="st0" d="M10.4,9.8H7.3L7,11.3H3.8L7,0.4h3.7l3.2,10.9h-3.2L10.4,9.8z M7.9,7.2h1.9l-1-4.1L7.9,7.2z"/>
		<path class="st0" d="M17.4,5.7v5.6h-3V0.4h3.1l2.7,5.3V0.4h3v10.9h-2.9L17.4,5.7z"/>
		<path class="st0" d="M28.4,8.4c0.3,0.2,0.7,0.4,1.1,0.4c0.6,0,1.1-0.4,1.1-1.1V0.4h3.1v7.4c0,2.6-1.5,3.7-3.8,3.7
			c-0.8,0-1.7-0.2-2.4-0.7L28.4,8.4z"/>
		<path class="st0" d="M40.3,9.8h-3.1l-0.3,1.5h-3.2l3.2-10.9h3.7l3.2,10.9h-3.2L40.3,9.8z M37.8,7.2h1.9l-1-4.1L37.8,7.2z"/>
		<path class="st0" d="M43.4,5.9c0-3.3,1.9-5.6,4.9-5.6c2.5,0,3.6,1.7,4.1,3.1l-2.6,1.1c-0.2-0.8-0.8-1.5-1.6-1.5
			c-1.1,0-1.8,1.2-1.8,2.9c0,1.7,0.7,2.9,1.8,2.9c0.8,0,1.4-0.7,1.6-1.5l2.5,1.1c-0.5,1.4-1.5,3.2-4.1,3.2
			C45.3,11.5,43.4,9.2,43.4,5.9z"/>
		<path class="st0" d="M56.8,7.6l-0.6,1.1v2.6h-3.1V0.4h3.1v4.2l2.3-4.2h3.6l-3.3,5l3.5,5.8h-3.6L56.8,7.6z"/>
		<path class="st0" d="M63.4,7.7c0.7,0.7,1.6,1.1,2.7,1.1c0.6,0,1-0.3,1-0.7c0-0.5-0.5-0.7-1.3-1c-1.4-0.5-3.4-1-3.4-3.4
			c0-1.8,1.4-3.4,4-3.4c1.4,0,2.7,0.4,3.7,1.2l-1.4,2.3c-0.7-0.6-1.6-0.9-2.3-0.9c-0.7,0-0.9,0.3-0.9,0.6c0,0.5,0.5,0.7,1.4,1
			c1.4,0.5,3.4,1.1,3.4,3.4c0,2.2-1.6,3.6-4.1,3.6c-1.9,0-3.2-0.5-4.2-1.4L63.4,7.7z"/>
		<path class="st0" d="M75.4,0.2c3,0,4.9,2.3,4.9,5.6c0,3.3-1.9,5.6-4.9,5.6s-4.9-2.3-4.9-5.6C70.5,2.5,72.4,0.2,75.4,0.2z M75.4,3
			c-1.2,0-1.8,1.2-1.8,2.9c0,1.7,0.6,2.9,1.8,2.9s1.8-1.2,1.8-2.9C77.3,4.2,76.6,3,75.4,3z"/>
		<path class="st0" d="M84.3,5.7v5.6h-3V0.4h3.1l2.7,5.3V0.4h3v10.9h-2.9L84.3,5.7z"/>
	</g>
	<g>
		<path class="st1" d="M0.4,14h1.5c1.4,0,2.2,1.1,2.2,2.6c0,1.5-0.8,2.6-2.2,2.6H0.4V14z M1.9,18.4c0.8,0,1.3-0.8,1.3-1.8
			c0-1.1-0.4-1.8-1.3-1.8H1.2v3.7H1.9z"/>
		<path class="st1" d="M5.3,14h2.8v0.8h-2v1.4h1.9v0.8H6.1v1.5h2v0.8H5.3V14z"/>
		<path class="st1" d="M9.5,17.9c0.3,0.3,0.7,0.6,1.2,0.6c0.5,0,0.8-0.3,0.8-0.7c0-0.5-0.4-0.7-0.9-0.9c-0.6-0.3-1.4-0.6-1.4-1.6
			c0-0.8,0.6-1.4,1.6-1.4c0.6,0,1.1,0.2,1.5,0.6l-0.4,0.6c-0.3-0.3-0.7-0.4-1.1-0.4c-0.4,0-0.7,0.2-0.7,0.6c0,0.4,0.4,0.6,0.9,0.8
			c0.7,0.3,1.4,0.6,1.4,1.6c0,0.8-0.6,1.5-1.7,1.5c-0.7,0-1.3-0.3-1.7-0.7L9.5,17.9z"/>
		<path class="st1" d="M13.6,14h0.9v5.2h-0.9V14z"/>
		<path class="st1" d="M17.8,13.9c0.8,0,1.4,0.5,1.6,1.1l-0.7,0.3c-0.2-0.4-0.5-0.7-0.9-0.7c-0.7,0-1.2,0.7-1.2,1.9s0.5,1.9,1.2,1.9
			c0.4,0,0.7-0.2,0.9-0.4v-1h-1.1v-0.8h1.9v2c-0.4,0.5-1,0.8-1.7,0.8c-1.3,0-2.1-1.1-2.1-2.7C15.7,15,16.5,13.9,17.8,13.9z"/>
		<path class="st1" d="M21.6,15.6v3.6h-0.9V14h0.9l1.9,3.4V14h0.8v5.2h-0.8L21.6,15.6z"/>
		<path class="st1" d="M26.6,16.5c0-0.5,0.4-0.9,0.9-0.9c0.5,0,0.9,0.4,0.9,0.9c0,0.5-0.4,0.9-0.9,0.9C27,17.4,26.6,17,26.6,16.5z"
			/>
		<path class="st1" d="M30.5,14H32c1.4,0,2.2,1.1,2.2,2.6c0,1.5-0.8,2.6-2.2,2.6h-1.5V14z M32,18.4c0.8,0,1.3-0.8,1.3-1.8
			c0-1.1-0.4-1.8-1.3-1.8h-0.7v3.7H32z"/>
		<path class="st1" d="M35.4,14h2.8v0.8h-2v1.4h1.9v0.8h-1.9v1.5h2v0.8h-2.8V14z"/>
		<path class="st1" d="M39.1,14h0.9l1.1,4.2l1.1-4.2h0.9l-1.5,5.2h-1L39.1,14z"/>
		<path class="st1" d="M44.2,14H47v0.8h-2v1.4H47v0.8h-1.9v1.5h2v0.8h-2.8V14z"/>
		<path class="st1" d="M48.3,14h0.9v4.4H51v0.8h-2.7V14z"/>
		<path class="st1" d="M53.8,13.9c1.3,0,2.1,1.1,2.1,2.7s-0.8,2.7-2.1,2.7s-2.1-1.1-2.1-2.7S52.4,13.9,53.8,13.9z M53.8,14.6
			c-0.8,0-1.2,0.8-1.2,1.9c0,1.1,0.4,1.9,1.2,1.9s1.2-0.8,1.2-1.9C54.9,15.5,54.5,14.6,53.8,14.6z"/>
		<path class="st1" d="M57,14h1.8c1,0,1.5,0.7,1.5,1.6c0,0.9-0.5,1.6-1.5,1.6h-0.9v2H57V14z M58.7,14.7h-0.8v1.7h0.8
			c0.5,0,0.7-0.3,0.7-0.9C59.5,15.1,59.2,14.7,58.7,14.7z"/>
		<path class="st1" d="M62.2,16.5c0-0.5,0.4-0.9,0.9-0.9S64,16,64,16.5c0,0.5-0.4,0.9-0.9,0.9C62.6,17.4,62.2,17,62.2,16.5z"/>
		<path class="st1" d="M66,16.6c0-1.6,0.8-2.7,2.1-2.7c0.9,0,1.4,0.6,1.7,1.1L69,15.3c-0.2-0.4-0.5-0.7-0.9-0.7
			c-0.7,0-1.2,0.8-1.2,1.9s0.5,1.9,1.2,1.9c0.5,0,0.8-0.3,0.9-0.8l0.7,0.3c-0.3,0.6-0.7,1.2-1.7,1.2C66.8,19.2,66,18.1,66,16.6z"/>
		<path class="st1" d="M72.2,17.2h-0.6v2h-0.9V14h1.8c0.9,0,1.5,0.6,1.5,1.6c0,0.9-0.5,1.4-0.9,1.5l1,2.1h-1L72.2,17.2z M72.4,14.7
			h-0.8v1.7h0.8c0.5,0,0.8-0.3,0.8-0.9C73.2,15.1,72.9,14.7,72.4,14.7z"/>
		<path class="st1" d="M75.3,14h2.8v0.8h-2v1.4H78v0.8h-1.9v1.5h2v0.8h-2.8V14z"/>
		<path class="st1" d="M81.9,18.1h-1.8l-0.3,1H79l1.5-5.2h1l1.5,5.2h-0.9L81.9,18.1z M80.3,17.4h1.4L81,14.7L80.3,17.4z"/>
		<path class="st1" d="M84.5,14.7h-1.2V14h3.2v0.8h-1.2v4.4h-0.8L84.5,14.7L84.5,14.7z"/>
		<path class="st1" d="M87.5,14h2.8v0.8h-2v1.4h1.9v0.8h-1.9v1.5h2v0.8h-2.8V14z"/>
	</g>
</g>
</svg>
