<?xml version="1.0" encoding="utf-8"?>
<!-- Generator: Adobe Illustrator 25.0.1, SVG Export Plug-In . SVG Version: 6.00 Build 0)  -->
<svg version="1.1" id="Layer_1" xmlns="http://www.w3.org/2000/svg" xmlns:xlink="http://www.w3.org/1999/xlink" x="0px" y="0px"
	 viewBox="0 0 100 25" style="enable-background:new 0 0 100 25;" xml:space="preserve">
<style type="text/css">
	.st0{fill:#FFFFFF;}
	.st1{fill:#FF483C;}
</style>
<g>
	<g>
		<path class="st0" d="M5.03,3.18H8.1v10.86H5.03V3.18z"/>
		<path class="st0" d="M15.07,12.57h-3.11l-0.33,1.47H8.46l3.19-10.86h3.73l3.19,10.86H15.4L15.07,12.57z M12.55,9.95h1.94
			l-0.96-4.09L12.55,9.95z"/>
		<path class="st0" d="M22,8.45v5.58h-3.04V3.18h3.13l2.72,5.26V3.18h3.03v10.86h-2.91L22,8.45z"/>
		<path class="st0" d="M33.02,11.14c0.28,0.21,0.68,0.37,1.11,0.37c0.63,0,1.09-0.39,1.09-1.07V3.18h3.08v7.36
			c0,2.56-1.55,3.7-3.84,3.7c-0.85,0-1.74-0.16-2.43-0.67L33.02,11.14z"/>
		<path class="st0" d="M44.97,12.57h-3.11l-0.33,1.47h-3.17l3.19-10.86h3.73l3.19,10.86h-3.17L44.97,12.57z M42.45,9.95h1.94
			l-0.96-4.09L42.45,9.95z"/>
		<path class="st0" d="M48.03,8.62c0-3.34,1.92-5.62,4.93-5.62c2.54,0,3.6,1.69,4.12,3.09l-2.56,1.07
			c-0.21-0.85-0.75-1.45-1.56-1.45c-1.14,0-1.79,1.2-1.79,2.9c0,1.69,0.65,2.9,1.79,2.9c0.83,0,1.38-0.7,1.58-1.55l2.54,1.06
			c-0.47,1.38-1.55,3.21-4.12,3.21C49.95,14.23,48.03,11.94,48.03,8.62z"/>
		<path class="st0" d="M61.43,10.33l-0.62,1.09v2.62h-3.08V3.18h3.08v4.23l2.31-4.23h3.57l-3.32,5.05l3.5,5.81h-3.61L61.43,10.33z"
			/>
		<path class="st0" d="M68.04,10.44c0.65,0.68,1.64,1.14,2.67,1.14c0.59,0,1.03-0.26,1.03-0.67c0-0.47-0.49-0.73-1.35-1.01
			c-1.4-0.46-3.45-1.03-3.45-3.45C66.94,4.68,68.3,3,70.97,3c1.43,0,2.74,0.44,3.7,1.25l-1.4,2.28c-0.72-0.6-1.6-0.88-2.3-0.88
			c-0.68,0-0.9,0.29-0.9,0.62c0,0.46,0.47,0.68,1.38,0.98c1.4,0.46,3.39,1.11,3.39,3.37c0,2.21-1.56,3.61-4.09,3.61
			c-1.87,0-3.17-0.54-4.15-1.45L68.04,10.44z"/>
		<path class="st0" d="M80.08,3c3.03,0,4.95,2.3,4.95,5.62c0,3.3-1.92,5.62-4.95,5.62c-3.03,0-4.95-2.31-4.95-5.62
			C75.14,5.3,77.06,3,80.08,3z M80.08,5.72c-1.17,0-1.81,1.2-1.81,2.9c0,1.68,0.63,2.9,1.81,2.9s1.82-1.22,1.82-2.9
			C81.91,6.92,81.26,5.72,80.08,5.72z"/>
		<path class="st0" d="M88.95,8.45v5.58h-3.04V3.18h3.13l2.72,5.26V3.18h3.03v10.86h-2.91L88.95,8.45z"/>
	</g>
	<g>
		<path class="st1" d="M5,16.73h1.54c1.39,0,2.18,1.08,2.18,2.59c0,1.5-0.78,2.58-2.18,2.58H5V16.73z M6.54,21.14
			c0.84,0,1.29-0.76,1.29-1.82c0-1.08-0.43-1.84-1.29-1.84H5.86v3.66H6.54z"/>
		<path class="st1" d="M9.92,16.73h2.83v0.75h-1.97v1.4h1.91v0.76h-1.91v1.49h1.97v0.76H9.92V16.73z"/>
		<path class="st1" d="M14.15,20.67c0.28,0.32,0.72,0.56,1.23,0.56c0.53,0,0.81-0.32,0.81-0.68c0-0.46-0.43-0.67-0.93-0.89
			c-0.64-0.28-1.39-0.6-1.39-1.56c0-0.81,0.63-1.44,1.6-1.44c0.6,0,1.12,0.2,1.49,0.56l-0.42,0.65c-0.3-0.3-0.69-0.44-1.09-0.44
			c-0.42,0-0.7,0.25-0.7,0.63c0,0.39,0.41,0.58,0.89,0.8c0.66,0.29,1.42,0.63,1.42,1.63c0,0.84-0.57,1.52-1.68,1.52
			c-0.74,0-1.29-0.26-1.66-0.66L14.15,20.67z"/>
		<path class="st1" d="M18.22,16.73h0.86v5.17h-0.86V16.73z"/>
		<path class="st1" d="M22.41,16.65c0.84,0,1.35,0.5,1.64,1.1l-0.7,0.33c-0.19-0.38-0.5-0.67-0.94-0.67c-0.74,0-1.23,0.74-1.23,1.91
			c0,1.17,0.5,1.91,1.23,1.91c0.38,0,0.69-0.18,0.86-0.37V19.9h-1.08v-0.75h1.9v2.05c-0.41,0.49-0.96,0.8-1.67,0.8
			c-1.27,0-2.11-1.08-2.11-2.68C20.3,17.72,21.14,16.65,22.41,16.65z"/>
		<path class="st1" d="M26.27,18.33v3.57h-0.86v-5.17h0.87l1.87,3.44v-3.44H29v5.17h-0.82L26.27,18.33z"/>
		<path class="st1" d="M31.19,19.26c0-0.49,0.39-0.88,0.88-0.88c0.49,0,0.88,0.39,0.88,0.88c0,0.47-0.39,0.87-0.88,0.87
			C31.59,20.13,31.19,19.73,31.19,19.26z"/>
		<path class="st1" d="M35.12,16.73h1.54c1.39,0,2.18,1.08,2.18,2.59c0,1.5-0.78,2.58-2.18,2.58h-1.54V16.73z M36.66,21.14
			c0.84,0,1.29-0.76,1.29-1.82c0-1.08-0.43-1.84-1.29-1.84h-0.68v3.66H36.66z"/>
		<path class="st1" d="M40.04,16.73h2.83v0.75H40.9v1.4h1.91v0.76H40.9v1.49h1.97v0.76h-2.83V16.73z"/>
		<path class="st1" d="M43.77,16.73h0.93l1.13,4.15l1.12-4.15h0.93l-1.54,5.17h-1.03L43.77,16.73z"/>
		<path class="st1" d="M48.85,16.73h2.83v0.75h-1.97v1.4h1.91v0.76h-1.91v1.49h1.97v0.76h-2.83V16.73z"/>
		<path class="st1" d="M52.94,16.73h0.86v4.41h1.79v0.76h-2.65V16.73z"/>
		<path class="st1" d="M58.39,16.65c1.31,0,2.07,1.15,2.07,2.67c0,1.52-0.76,2.67-2.07,2.67s-2.07-1.15-2.07-2.67
			C56.32,17.8,57.08,16.65,58.39,16.65z M58.39,17.41c-0.77,0-1.19,0.83-1.19,1.91c0,1.07,0.42,1.9,1.19,1.9
			c0.77,0,1.19-0.84,1.19-1.9C59.58,18.24,59.16,17.41,58.39,17.41z"/>
		<path class="st1" d="M61.68,16.73h1.76c1.01,0,1.53,0.74,1.53,1.6c0,0.87-0.51,1.61-1.53,1.61h-0.9v1.95h-0.86V16.73z
			 M63.34,17.49h-0.8v1.7h0.8c0.46,0,0.75-0.34,0.75-0.85C64.09,17.83,63.8,17.49,63.34,17.49z"/>
		<path class="st1" d="M66.85,19.26c0-0.49,0.39-0.88,0.88-0.88c0.49,0,0.88,0.39,0.88,0.88c0,0.47-0.39,0.87-0.88,0.87
			C67.25,20.13,66.85,19.73,66.85,19.26z"/>
		<path class="st1" d="M70.59,19.32c0-1.56,0.81-2.67,2.08-2.67c0.92,0,1.39,0.57,1.66,1.14l-0.71,0.32c-0.18-0.41-0.5-0.7-0.94-0.7
			c-0.74,0-1.21,0.81-1.21,1.91c0,1.1,0.47,1.9,1.21,1.9c0.47,0,0.79-0.33,0.95-0.76l0.71,0.32c-0.26,0.6-0.73,1.21-1.66,1.21
			C71.4,21.99,70.59,20.87,70.59,19.32z"/>
		<path class="st1" d="M76.88,19.95h-0.63v1.95h-0.86v-5.17h1.78c0.89,0,1.5,0.64,1.5,1.6c0,0.91-0.5,1.35-0.95,1.47l1,2.1h-0.96
			L76.88,19.95z M77.04,17.49h-0.8v1.7h0.8c0.46,0,0.75-0.34,0.75-0.85C77.79,17.83,77.5,17.49,77.04,17.49z"/>
		<path class="st1" d="M79.9,16.73h2.83v0.75h-1.97v1.4h1.91v0.76h-1.91v1.49h1.97v0.76H79.9V16.73z"/>
		<path class="st1" d="M86.57,20.88h-1.77l-0.28,1.02h-0.89l1.54-5.17h1.03l1.54,5.17h-0.89L86.57,20.88z M84.97,20.12h1.42
			l-0.71-2.62L84.97,20.12z"/>
		<path class="st1" d="M89.09,17.49h-1.18v-0.75h3.22v0.75h-1.18v4.41h-0.85V17.49z"/>
		<path class="st1" d="M92.17,16.73H95v0.75h-1.97v1.4h1.91v0.76h-1.91v1.49H95v0.76h-2.83V16.73z"/>
	</g>
</g>
</svg>
